<svg width="34" height="34" viewBox="0 0 34 34" fill="none" xmlns="http://www.w3.org/2000/svg">
<path d="M23.851 13.3964H19.5925V12.339H23.8527V13.3981L23.851 13.3964ZM16.7569 17.7365C17.0323 18.1615 17.1683 18.6783 17.1683 19.2852C17.1683 19.9142 17.0153 20.4752 16.6991 20.9733C16.4885 21.3232 16.2069 21.6251 15.8725 21.8596C15.5382 22.0942 15.1584 22.2561 14.7577 22.335C14.2658 22.4334 13.7651 22.4812 13.2634 22.4778H8.5V11.9004H13.6085C14.8954 11.9208 15.8083 12.2948 16.3472 13.0275C16.6702 13.4763 16.8317 14.0152 16.8317 14.6425C16.8317 15.2885 16.6702 15.807 16.3421 16.1997C16.1619 16.4207 15.8933 16.6213 15.538 16.8015C16.0752 16.9987 16.4832 17.3081 16.7569 17.7365ZM10.9395 16.0705H13.1784C13.6374 16.0705 14.0097 15.9838 14.2953 15.8087C14.5826 15.6336 14.7254 15.3242 14.7254 14.8788C14.7254 14.3858 14.5367 14.0594 14.1576 13.903C13.7525 13.7817 13.3308 13.7254 12.9081 13.7364H10.9395V16.0705ZM14.9413 19.1339C14.9413 18.5848 14.7152 18.2057 14.2681 18.0017C14.0165 17.8861 13.6629 17.8266 13.2107 17.8215H10.9395V20.6401H13.175C13.634 20.6401 13.991 20.5806 14.246 20.4548C14.7084 20.2253 14.9413 19.7867 14.9413 19.1339ZM25.432 17.4135C25.483 17.7603 25.5068 18.2618 25.4983 18.918H19.9818C20.0124 19.6796 20.2742 20.2117 20.774 20.516C21.0732 20.7081 21.437 20.8016 21.8654 20.8016C22.3159 20.8016 22.6814 20.6877 22.9653 20.4531C23.1343 20.3088 23.2725 20.1319 23.3716 19.9329H25.3946C25.3402 20.3834 25.0971 20.839 24.6602 21.3031C23.9802 22.0392 23.0316 22.4081 21.8093 22.4081C20.8378 22.4207 19.8929 22.0909 19.1403 21.4765C18.3719 20.8543 17.9843 19.8445 17.9843 18.442C17.9843 17.1279 18.3328 16.1215 19.0281 15.4211C19.7251 14.719 20.6278 14.3705 21.7396 14.3705C22.3975 14.3705 22.9908 14.4878 23.5212 14.7241C24.0482 14.9621 24.4851 15.3344 24.8285 15.8461C25.1396 16.2983 25.3385 16.8185 25.432 17.4135ZM23.443 17.6107C23.4056 17.0837 23.2288 16.6859 22.9126 16.4139C22.5862 16.1359 22.1681 15.9893 21.7396 16.0025C21.2296 16.0025 20.8369 16.1504 20.5564 16.4377C20.2759 16.7267 20.1008 17.1177 20.0294 17.6107H23.443Z" fill="#9ECC52"/>
<path d="M6.8 3.4C5.89826 3.4 5.03346 3.75821 4.39584 4.39584C3.75821 5.03346 3.4 5.89826 3.4 6.8V27.2C3.4 28.1017 3.75821 28.9665 4.39584 29.6042C5.03346 30.2418 5.89826 30.6 6.8 30.6H27.2C28.1017 30.6 28.9665 30.2418 29.6042 29.6042C30.2418 28.9665 30.6 28.1017 30.6 27.2V6.8C30.6 5.89826 30.2418 5.03346 29.6042 4.39584C28.9665 3.75821 28.1017 3.4 27.2 3.4H6.8ZM6.8 0H27.2C29.0035 0 30.7331 0.716427 32.0083 1.99167C33.2836 3.26692 34 4.99653 34 6.8V27.2C34 29.0035 33.2836 30.7331 32.0083 32.0083C30.7331 33.2836 29.0035 34 27.2 34H6.8C4.99653 34 3.26692 33.2836 1.99167 32.0083C0.716427 30.7331 0 29.0035 0 27.2V6.8C0 4.99653 0.716427 3.26692 1.99167 1.99167C3.26692 0.716427 4.99653 0 6.8 0Z" fill="#9ECC52"/>
</svg>
