<svg width="80" height="254" viewBox="0 0 80 254" fill="none" xmlns="http://www.w3.org/2000/svg">
<path fill-rule="evenodd" clip-rule="evenodd" d="M80 0H0V255H80V0ZM39.4714 154C38.854 154 38.2619 153.757 37.8252 153.325L24.6536 140.284C24.2295 139.849 23.9948 139.266 24.0001 138.662C24.0054 138.058 24.2503 137.479 24.682 137.052C25.1137 136.624 25.6977 136.382 26.3081 136.377C26.9186 136.372 27.5068 136.604 27.9459 137.024L37.143 146.13L37.1428 103.305C37.1428 102.694 37.3881 102.108 37.8247 101.675C38.2614 101.243 38.8536 101 39.4711 101C40.0887 101 40.6809 101.243 41.1176 101.675C41.5542 102.108 41.7995 102.694 41.7995 103.305L41.7998 146.13L50.9968 137.024C51.2116 136.804 51.4686 136.628 51.7526 136.507C52.0367 136.386 52.3422 136.323 52.6514 136.32C52.9606 136.317 53.2672 136.376 53.5533 136.492C53.8395 136.608 54.0994 136.779 54.318 136.995C54.5367 137.212 54.7095 137.469 54.8266 137.752C54.9437 138.036 55.0026 138.339 54.9999 138.645C54.9972 138.952 54.933 139.254 54.811 139.535C54.6889 139.817 54.5116 140.071 54.2892 140.284L41.1176 153.325C40.6809 153.757 40.0888 154 39.4714 154Z" fill="#9ECC52"/>
</svg>
