<svg width="384" height="385" viewBox="0 0 384 385" fill="none" xmlns="http://www.w3.org/2000/svg">
<circle cx="192.301" cy="192.587" r="178.506" stroke="#9ECC52" stroke-width="26.2026"/>
<path d="M207.669 137.344C220.409 137.344 231.756 139.931 241.709 145.107C251.861 150.084 259.824 157.847 265.597 168.398C271.37 178.749 274.256 192.086 274.256 208.41V300.378H227.675V215.576C227.675 202.637 224.788 193.082 219.016 186.911C213.442 180.74 205.479 177.654 195.128 177.654C187.762 177.654 181.094 179.247 175.122 182.432C169.349 185.418 164.77 190.096 161.386 196.466C158.201 202.836 156.609 210.998 156.609 220.951V300.378H110.027V78.8184H156.609V184.223L146.158 170.787C151.931 160.037 160.192 151.776 170.941 146.003C181.691 140.23 193.933 137.344 207.669 137.344Z" fill="#9ECC52"/>
</svg>
