<svg width="35" height="34" viewBox="0 0 35 34" fill="none" xmlns="http://www.w3.org/2000/svg">
<path d="M10.36 0H24.64C30.08 0 34.5 4.42 34.5 9.86V24.14C34.5 26.755 33.4612 29.263 31.6121 31.1121C29.763 32.9612 27.255 34 24.64 34H10.36C4.92 34 0.5 29.58 0.5 24.14V9.86C0.5 7.24497 1.53882 4.73704 3.38793 2.88793C5.23704 1.03882 7.74497 0 10.36 0ZM10.02 3.4C8.39688 3.4 6.84023 4.04478 5.69251 5.19251C4.54478 6.34023 3.9 7.89688 3.9 9.52V24.48C3.9 27.863 6.637 30.6 10.02 30.6H24.98C26.6031 30.6 28.1598 29.9552 29.3075 28.8075C30.4552 27.6598 31.1 26.1031 31.1 24.48V9.52C31.1 6.137 28.363 3.4 24.98 3.4H10.02ZM26.425 5.95C26.9886 5.95 27.5291 6.17388 27.9276 6.5724C28.3261 6.97091 28.55 7.51141 28.55 8.075C28.55 8.63859 28.3261 9.17909 27.9276 9.5776C27.5291 9.97612 26.9886 10.2 26.425 10.2C25.8614 10.2 25.3209 9.97612 24.9224 9.5776C24.5239 9.17909 24.3 8.63859 24.3 8.075C24.3 7.51141 24.5239 6.97091 24.9224 6.5724C25.3209 6.17388 25.8614 5.95 26.425 5.95ZM17.5 8.5C19.7543 8.5 21.9163 9.39553 23.5104 10.9896C25.1045 12.5837 26 14.7457 26 17C26 19.2543 25.1045 21.4163 23.5104 23.0104C21.9163 24.6045 19.7543 25.5 17.5 25.5C15.2457 25.5 13.0837 24.6045 11.4896 23.0104C9.89553 21.4163 9 19.2543 9 17C9 14.7457 9.89553 12.5837 11.4896 10.9896C13.0837 9.39553 15.2457 8.5 17.5 8.5ZM17.5 11.9C16.1474 11.9 14.8502 12.4373 13.8938 13.3938C12.9373 14.3502 12.4 15.6474 12.4 17C12.4 18.3526 12.9373 19.6498 13.8938 20.6062C14.8502 21.5627 16.1474 22.1 17.5 22.1C18.8526 22.1 20.1498 21.5627 21.1062 20.6062C22.0627 19.6498 22.6 18.3526 22.6 17C22.6 15.6474 22.0627 14.3502 21.1062 13.3938C20.1498 12.4373 18.8526 11.9 17.5 11.9Z" fill="#9ECC52"/>
</svg>
