<svg width="34" height="34" viewBox="0 0 34 34" fill="none" xmlns="http://www.w3.org/2000/svg">
<path d="M17 0C7.61175 0 0 7.61175 0 17C0 26.3882 7.61175 34 17 34C26.3882 34 34 26.3882 34 17C34 7.61175 26.3882 0 17 0ZM25.3498 11.6464L22.559 24.7931C22.3536 25.7252 21.7982 25.9519 21.0233 25.5128L16.7733 22.3819L14.7248 24.3568C14.6245 24.4867 14.4957 24.5919 14.3483 24.6643C14.201 24.7368 14.039 24.7745 13.8748 24.7747H13.8677L14.1695 20.4482L22.0462 13.3337C22.3862 13.0319 21.9697 12.8605 21.5177 13.1623L11.7867 19.2907L7.59333 17.9817C6.68667 17.6942 6.66117 17.0751 7.78458 16.6303L24.1698 10.3147C24.9319 10.0371 25.5949 10.4961 25.3484 11.6478L25.3498 11.6464Z" fill="#9ECC52"/>
</svg>
